<?xml version="1.0" encoding="utf-8"?>
<!-- Generator: Adobe Illustrator 24.2.0, SVG Export Plug-In . SVG Version: 6.00 Build 0)  -->
<svg version="1.1" id="Layer_1" xmlns="http://www.w3.org/2000/svg" xmlns:xlink="http://www.w3.org/1999/xlink" x="0px" y="0px"
	 viewBox="0 0 669.47 445.76" style="enable-background:new 0 0 669.47 445.76;" xml:space="preserve">
<style type="text/css">
	.st0{fill:#1472B9;}
	.st1{fill:#1372B9;}
	.st2{fill:#1272B9;}
	.st3{fill:#FFFFFF;}
	.st4{clip-path:url(#SVGID_1_);fill:url(#SVGID_2_);}
	.st5{clip-path:url(#SVGID_3_);fill:url(#SVGID_4_);}
	.st6{clip-path:url(#SVGID_5_);fill:url(#SVGID_6_);}
	.st7{clip-path:url(#SVGID_7_);fill:url(#SVGID_8_);}
	.st8{clip-path:url(#SVGID_9_);fill:url(#SVGID_10_);}
	.st9{clip-path:url(#SVGID_11_);fill:url(#SVGID_12_);}
	.st10{clip-path:url(#SVGID_13_);fill:url(#SVGID_14_);}
	.st11{clip-path:url(#SVGID_15_);fill:url(#SVGID_16_);}
</style>
<g id="PORTAL">
	<path class="st0" d="M526.4,416.79c-0.03,5.57-1.14,10.6-4.17,15.08c-2.42,3.58-5.63,6.19-9.93,7.09
		c-6.56,1.38-11.93-0.76-16.08-5.93c-2.67-3.33-4.09-7.22-4.69-11.42c-0.7-4.86-0.39-9.64,1.25-14.29c1.28-3.63,3.26-6.82,6.32-9.26
		c6.11-4.87,14.66-4.52,20.36,0.83c3.36,3.16,5.25,7.12,6.26,11.55C526.21,412.62,526.37,414.82,526.4,416.79z M508.77,432.24
		c2.3,0.02,4.32-0.72,6.11-2.13c2.03-1.6,3.31-3.71,4.18-6.09c1.13-3.06,1.38-6.23,1.05-9.45c-0.31-2.98-1.2-5.78-2.96-8.25
		c-2.88-4.06-7.69-5.61-12.02-3.83c-2.87,1.18-4.75,3.39-6.04,6.14c-1.51,3.2-1.9,6.59-1.68,10.07c0.18,2.76,0.86,5.4,2.26,7.81
		C501.7,429.99,504.59,432.14,508.77,432.24z"/>
	<path class="st1" d="M561.89,438.74c-2.14,0-4.2-0.01-6.25,0.01c-0.32,0-0.4-0.19-0.51-0.4c-1.6-3.06-3.21-6.13-4.81-9.19
		c-0.49-0.93-0.98-1.85-1.45-2.78c-0.13-0.25-0.27-0.33-0.56-0.33c-2.54,0.02-5.09,0.04-7.63,0.02c-0.45,0-0.58,0.12-0.58,0.58
		c0.02,3.83,0,7.65,0.02,11.48c0,0.51-0.15,0.63-0.64,0.62c-1.63-0.03-3.27-0.03-4.91,0c-0.51,0.01-0.63-0.12-0.63-0.63
		c0.01-13.68,0.01-27.36,0.01-41.03c0-0.46,0.02-0.93-0.01-1.39c-0.02-0.32,0.1-0.41,0.41-0.41c4.89,0.03,9.78-0.2,14.65,0.09
		c5.49,0.33,9.83,3.58,11.49,9.33c1.33,4.64,1.24,9.27-0.63,13.78c-1.02,2.45-2.67,4.4-5.01,5.71c-0.44,0.25-0.36,0.45-0.17,0.79
		c2.37,4.48,4.72,8.96,7.08,13.44C561.8,438.5,561.82,438.58,561.89,438.74z M540.11,410.73c0,2.72,0,5.43,0,8.15
		c0,0.3-0.02,0.53,0.42,0.52c2.48-0.02,4.97,0.07,7.44-0.04c3.08-0.13,5.4-1.51,6.54-4.49c0.79-2.05,0.78-4.18,0.51-6.31
		c-0.48-3.7-3.05-6.1-6.78-6.35c-2.52-0.16-5.04-0.02-7.56-0.08c-0.51-0.01-0.59,0.18-0.58,0.63
		C540.11,405.41,540.11,408.07,540.11,410.73z"/>
	<path class="st1" d="M457.51,416.99c0-7.01,0.01-14.02-0.01-21.03c0-0.57,0.17-0.69,0.7-0.68c4.5,0.03,9-0.06,13.5,0.04
		c6.35,0.15,10.92,3.74,12.5,9.88c1.2,4.66,1.07,9.31-0.99,13.75c-1.93,4.14-5.29,6.46-9.78,7.08c-2.91,0.4-5.85,0.11-8.77,0.17
		c-1,0.02-1,0-1,0.98c0,3.65-0.01,7.29,0.01,10.94c0,0.5-0.12,0.65-0.63,0.64c-1.65-0.03-3.31-0.03-4.96,0
		c-0.5,0.01-0.58-0.17-0.58-0.61C457.52,431.09,457.51,424.04,457.51,416.99z M463.67,410.77c0,2.68,0,5.36,0,8.04
		c0,0.28-0.07,0.57,0.4,0.56c2.7-0.06,5.41,0.15,8.11-0.12c2.79-0.28,4.84-1.67,5.89-4.34c0.81-2.07,0.81-4.22,0.52-6.37
		c-0.5-3.74-3.03-6.07-6.8-6.32c-2.5-0.17-5-0.02-7.5-0.08c-0.47-0.01-0.61,0.11-0.61,0.6
		C463.68,405.41,463.67,408.09,463.67,410.77z"/>
	<path class="st1" d="M633.08,438.74c-2.08,0-4.09-0.01-6.11,0.01c-0.4,0-0.37-0.31-0.45-0.53c-0.89-2.72-1.78-5.45-2.66-8.18
		c-0.43-1.33-0.43-1.33-1.85-1.33c-4.74,0-9.49,0.01-14.23-0.02c-0.51,0-0.67,0.17-0.81,0.62c-0.94,2.99-1.91,5.96-2.85,8.94
		c-0.11,0.36-0.25,0.51-0.65,0.5c-1.91-0.03-3.83-0.01-5.82-0.01c0.49-1.44,0.96-2.83,1.42-4.21c4.06-12.01,8.12-24.02,12.18-36.03
		c0.3-0.88,0.62-1.74,0.88-2.63c0.13-0.43,0.33-0.6,0.8-0.59c1.59,0.03,3.19,0.03,4.78,0c0.48-0.01,0.69,0.13,0.85,0.6
		c2.92,8.67,5.87,17.33,8.81,26c1.83,5.4,3.66,10.79,5.5,16.18C632.93,438.27,632.99,438.47,633.08,438.74z M615.31,403.53
		c-0.08,0.19-0.14,0.3-0.17,0.41c-1.91,5.93-3.8,11.87-5.72,17.8c-0.15,0.45-0.12,0.57,0.4,0.57c3.67-0.02,7.34-0.02,11.01,0
		c0.48,0,0.57-0.07,0.41-0.55c-1.38-4.21-2.74-8.42-4.1-12.63C616.53,407.28,615.93,405.44,615.31,403.53z"/>
	<path class="st0" d="M583.87,420.48c0,5.88-0.01,11.76,0.01,17.65c0,0.51-0.13,0.63-0.63,0.62c-1.63-0.03-3.27-0.03-4.9,0
		c-0.52,0.01-0.62-0.16-0.62-0.65c0.01-11.7,0.01-23.41,0.01-35.11c0-0.95,0.11-0.85-0.83-0.85c-3.13,0-6.26-0.01-9.39,0.01
		c-0.51,0-0.63-0.14-0.62-0.64c0.03-1.91,0.02-3.83,0-5.74c0-0.39,0.1-0.51,0.5-0.51c8.92,0.01,17.84,0.01,26.77,0
		c0.4,0,0.51,0.12,0.5,0.51c-0.02,1.93-0.02,3.87,0,5.8c0.01,0.45-0.12,0.57-0.57,0.57c-3.15-0.02-6.3-0.01-9.45-0.01
		c-0.92,0-0.78-0.11-0.79,0.81C583.86,408.8,583.87,414.64,583.87,420.48z"/>
	<path class="st2" d="M639.33,417.04c0-7.03,0.01-14.06-0.01-21.09c0-0.52,0.11-0.69,0.66-0.67c1.61,0.04,3.23,0.03,4.84,0
		c0.47-0.01,0.61,0.11,0.61,0.6c-0.02,3.5-0.01,7.01-0.01,10.51c0,8.26,0.01,16.52-0.01,24.78c0,0.56,0.16,0.69,0.7,0.68
		c5.25-0.02,10.5,0,15.75-0.03c0.55,0,0.66,0.15,0.65,0.67c-0.03,1.91-0.02,3.83,0,5.74c0,0.38-0.08,0.51-0.49,0.51
		c-7.39-0.01-14.78-0.02-22.17,0c-0.53,0-0.51-0.25-0.51-0.62C639.33,431.1,639.33,424.07,639.33,417.04z"/>
</g>
<g id="CENTER">
	<path class="st3" d="M260.69,306.25c0,22.28,0,43.93,0,65.68c-8.44,0-16.69,0-25.1,0c0-36.28,0-72.54,0-108.95
		c0.54-0.04,1.08-0.12,1.63-0.12c5.86-0.01,11.71-0.07,17.57,0.06c0.97,0.02,2.22,0.6,2.83,1.34c17,20.64,33.93,41.33,50.88,62.02
		c0.52,0.64,1.08,1.25,1.99,2.29c0-22.16,0-43.8,0-65.56c8.48,0,16.72,0,25.11,0c0,36.27,0,72.54,0,109.04
		c-4.73,0-9.46-0.39-14.1,0.11c-4.97,0.53-7.96-1.42-11-5.2c-15.83-19.66-31.95-39.09-47.98-58.59
		C262.07,307.8,261.59,307.28,260.69,306.25z"/>
	<path class="st3" d="M562.22,262.85c0.72,0,1.29,0,1.85,0c15.57,0,31.14-0.07,46.71,0.03c10.67,0.07,20.88,2.16,29.93,8.17
		c10.25,6.81,15.41,16.54,16.07,28.72c0.66,12.2-2.7,22.9-12.34,30.96c-2.92,2.44-6.33,4.3-9.67,6.54
		c7.94,11.37,15.99,22.9,24.27,34.77c-2.96,0-5.57,0-8.17,0c-5.79,0-11.57-0.05-17.36,0.04c-1.39,0.02-2.17-0.44-2.93-1.55
		c-6.25-9.11-12.57-18.16-18.82-27.28c-0.81-1.19-1.66-1.66-3.12-1.65c-6.92,0.08-13.83,0.04-21.03,0.04c0,10.16,0,20.17,0,30.29
		c-8.6,0-16.93,0-25.41,0C562.22,335.65,562.22,299.38,562.22,262.85z M587.9,283.13c-0.21,1.01-0.31,1.29-0.31,1.56
		c-0.01,11.7,0,23.4-0.04,35.1c-0.01,1.42,0.67,1.62,1.85,1.61c3.79-0.04,7.57,0.08,11.36-0.04c5.06-0.16,10.18-0.04,15.15-0.83
		c9.26-1.47,15-8.09,15.18-16.68c0.22-10.76-4.23-17.63-14.32-19.14C607.31,283.3,597.6,283.59,587.9,283.13z"/>
	<path class="st3" d="M131.09,262.92c27.52,0,54.86,0,82.34,0c0,6.74,0,13.41,0,20.31c-18.95,0-37.92,0-57.05,0
		c0,7.88,0,15.53,0,23.43c16.75,0,33.43,0,50.28,0c0,6.68,0,13.13,0,19.87c-16.75,0-33.48,0-50.33,0c0,8.4,0,16.5,0,24.86
		c19.67,0,39.33,0,59.15,0c0,6.98,0,13.7,0,20.54c-28.13,0-56.18,0-84.39,0C131.09,335.65,131.09,299.39,131.09,262.92z"/>
	<path class="st3" d="M482.98,283.31c0,7.83,0,15.43,0,23.34c16.78,0,33.51,0,50.5,0c0,3.43,0,6.55,0,9.67
		c0,2.71-0.09,5.43,0.03,8.13c0.08,1.7-0.5,2.16-2.18,2.15c-15.21-0.06-30.43-0.04-45.64-0.04c-0.85,0-1.7,0-2.7,0
		c0,8.33,0,16.49,0,24.86c19.72,0,39.39,0,59.2,0c0,6.93,0,13.66,0,20.5c-28.17,0-56.27,0-84.5,0c0-36.3,0-72.51,0-108.89
		c27.38,0,54.76,0,82.33,0c0,6.6,0,13.32,0,20.28C521.03,283.31,502.07,283.31,482.98,283.31z"/>
	<path class="st3" d="M114.21,280.4c-5.49,5.07-10.82,9.99-16.16,14.92c-14.35-18.23-42.58-15.06-54.2-1.38
		c-11.37,13.38-10.72,36.1,1.6,48.59c11.41,11.57,36.96,15.11,52.55-3.21c5.39,4.96,10.77,9.91,16.23,14.93
		c-6.67,8.14-14.95,13.69-24.86,16.56c-18.36,5.32-36.25,4.27-52.9-5.68c-16.44-9.83-25.16-24.73-26.39-43.76
		c-1.14-17.62,4.31-32.95,17.44-45.09c9.65-8.93,21.3-13.68,34.33-14.91c13.66-1.29,26.79,0.53,38.86,7.55
		C105.8,271.89,110.27,275.63,114.21,280.4z"/>
	<path class="st3" d="M409.54,372.03c-8.46,0-16.53,0-24.59-0.01c-0.27,0-0.54-0.08-1.01-0.16c0-29.34,0-58.64,0-88.18
		c-11.67,0-23.14,0-34.75,0c0-6.99,0-13.73,0-20.66c31.52,0,63.12,0,94.89,0c0,6.74,0,13.53,0,20.52c-11.49,0-22.89,0-34.53,0
		C409.54,313.08,409.54,342.43,409.54,372.03z"/>
</g>
<g id="EYEON_LOGO">
	<g>
		<defs>
			<path id="SVGID_25_" d="M232.86,122.24c0,59.84,48.81,108.65,108.65,108.65c59.84,0,108.63-48.81,108.63-108.65
				c0-59.84-48.8-108.64-108.63-108.64C281.67,13.6,232.86,62.4,232.86,122.24"/>
		</defs>
		<clipPath id="SVGID_1_">
			<use xlink:href="#SVGID_25_"  style="overflow:visible;"/>
		</clipPath>
		
			<radialGradient id="SVGID_2_" cx="-53.6133" cy="550.8951" r="1.0468" gradientTransform="matrix(137.9676 0 0 -137.9676 7738.4033 76127.9375)" gradientUnits="userSpaceOnUse">
			<stop  offset="0" style="stop-color:#FFFFFF"/>
			<stop  offset="0.22" style="stop-color:#D2E188"/>
			<stop  offset="0.51" style="stop-color:#A5CD39"/>
			<stop  offset="1" style="stop-color:#57A345"/>
		</radialGradient>
		<rect x="232.86" y="13.6" class="st4" width="217.28" height="217.29"/>
	</g>
	<g>
		<defs>
			<path id="SVGID_28_" d="M432.95,100.46c0,57.91-46.95,104.86-104.86,104.86c-33.18,0-62.78-15.43-81.99-39.5
				c16.54,36.16,53.03,61.28,95.4,61.28c57.9,0,104.85-46.94,104.85-104.85c0-24.72-8.57-47.43-22.87-65.36
				C429.57,70.16,432.95,84.91,432.95,100.46"/>
		</defs>
		<clipPath id="SVGID_3_">
			<use xlink:href="#SVGID_28_"  style="overflow:visible;"/>
		</clipPath>
		
			<linearGradient id="SVGID_4_" gradientUnits="userSpaceOnUse" x1="-53.9391" y1="550.1422" x2="-52.8923" y2="550.1422" gradientTransform="matrix(-19.7214 -1129.8394 -1129.8394 19.7214 620865.125 -71058.1016)">
			<stop  offset="0" style="stop-color:#9CC63B"/>
			<stop  offset="0.33" style="stop-color:#B5D553"/>
			<stop  offset="0.67" style="stop-color:#D2E188"/>
			<stop  offset="1" style="stop-color:#FFFFFF"/>
		</linearGradient>
		<polygon class="st5" points="246.16,230.59 243.13,56.94 446.3,53.39 449.33,227.04 		"/>
	</g>
	<g>
		<defs>
			<path id="SVGID_31_" d="M235.94,99.83c-5.45,38.92,10.87,77.85,27.42,74.04c-4.45-11.8-7.1-24.02-7.1-35.04
				c0-45.99,34.25-83.27,76.52-83.27c7.9,0,15.53,1.3,22.7,3.73l11.71-30.06c-13.77-2.53-26.21-3.7-37.46-3.69
				C266.17,25.54,241.14,62.69,235.94,99.83"/>
		</defs>
		<clipPath id="SVGID_5_">
			<use xlink:href="#SVGID_31_"  style="overflow:visible;"/>
		</clipPath>
		
			<linearGradient id="SVGID_6_" gradientUnits="userSpaceOnUse" x1="-54.8741" y1="550.4604" x2="-53.8273" y2="550.4604" gradientTransform="matrix(-28.1358 121.8695 121.8695 28.1358 -68318.3516 -8746.543)">
			<stop  offset="0" style="stop-color:#2E325C"/>
			<stop  offset="0.31" style="stop-color:#2053A2"/>
			<stop  offset="0.75" style="stop-color:#19A4DE"/>
			<stop  offset="0.94" style="stop-color:#6FCBF2"/>
			<stop  offset="1" style="stop-color:#8DD6F7"/>
		</linearGradient>
		<polygon class="st6" points="400.54,33.23 360.27,207.64 197.14,169.98 237.41,-4.43 		"/>
	</g>
	<g>
		<defs>
			<path id="SVGID_34_" d="M283.85,53.27c60.01-34.26,96.69,30.14,54.02,49.51c-39.68,18-68.89,20.79-75.31,66.32
				C235.64,135.54,238.96,83.34,283.85,53.27 M221.29,123.55c0,33.22,15.11,61.59,37.35,80.95l22.64-20.96l0.01-0.01
				c-4.45-45.17,39.94-40.45,87.38-54.29C458.82,102.95,429,7.12,337.72,7.12C273.42,7.12,221.29,59.25,221.29,123.55"/>
		</defs>
		<clipPath id="SVGID_7_">
			<use xlink:href="#SVGID_34_"  style="overflow:visible;"/>
		</clipPath>
		
			<linearGradient id="SVGID_8_" gradientUnits="userSpaceOnUse" x1="-54.571" y1="549.9221" x2="-53.5242" y2="549.9221" gradientTransform="matrix(-148.4761 69.2355 69.2355 148.4761 -45757.8477 -77802.9688)">
			<stop  offset="0" style="stop-color:#2E325C"/>
			<stop  offset="0.31" style="stop-color:#2053A2"/>
			<stop  offset="0.72" style="stop-color:#19A4DE"/>
			<stop  offset="0.89" style="stop-color:#6FCBF2"/>
			<stop  offset="1" style="stop-color:#ABDFEB"/>
		</linearGradient>
		<polygon class="st7" points="534.42,169.24 263.72,295.47 145.69,42.37 416.4,-83.86 		"/>
	</g>
	<g>
		<defs>
			<path id="SVGID_37_" d="M281.28,183.54l-3.82-0.72l-16.2,1.96c-11.38,38.93,125.02,91.22,186.7-40.74
				C408.96,195.42,340.76,228.17,281.28,183.54"/>
		</defs>
		<clipPath id="SVGID_9_">
			<use xlink:href="#SVGID_37_"  style="overflow:visible;"/>
		</clipPath>
		
			<radialGradient id="SVGID_10_" cx="-53.3315" cy="551.3516" r="1.0471" gradientTransform="matrix(80.2788 0 0 -80.2788 4630.041 44471.8828)" gradientUnits="userSpaceOnUse">
			<stop  offset="0" style="stop-color:#8DD6F7"/>
			<stop  offset="0.06" style="stop-color:#6FCBF2"/>
			<stop  offset="0.42" style="stop-color:#19A4DE"/>
			<stop  offset="0.8" style="stop-color:#2053A2"/>
			<stop  offset="1" style="stop-color:#2E325C"/>
		</radialGradient>
		<rect x="249.87" y="144.04" class="st8" width="198.09" height="131.96"/>
	</g>
	<g>
		<defs>
			<path id="SVGID_40_" d="M279.88,51.05c60.02-34.26,96.71,30.14,54.02,49.52c-39.66,18.01-68.87,20.79-75.3,66.32
				C231.67,133.32,234.99,81.12,279.88,51.05 M217.33,121.33c0,64.29,52.13,116.42,116.43,116.42c56.9,0,104.27-40.83,114.41-94.79
				c-47.01,76.37-132.73,80.99-170.72,39.86c-5.76-47.03,39.21-41.78,87.25-55.79C454.86,100.73,425.04,4.9,333.76,4.9
				C269.46,4.9,217.33,57.03,217.33,121.33"/>
		</defs>
		<clipPath id="SVGID_11_">
			<use xlink:href="#SVGID_40_"  style="overflow:visible;"/>
		</clipPath>
		
			<radialGradient id="SVGID_12_" cx="-53.6489" cy="550.8341" r="1.0468" gradientTransform="matrix(151.1259 0 0 -151.1259 8442.8008 83366.6406)" gradientUnits="userSpaceOnUse">
			<stop  offset="0" style="stop-color:#8DD6F7"/>
			<stop  offset="0.09" style="stop-color:#6FCBF2"/>
			<stop  offset="0.37" style="stop-color:#1D93D1"/>
			<stop  offset="0.66" style="stop-color:#0B63AF"/>
			<stop  offset="1" style="stop-color:#222C5E"/>
		</radialGradient>
		<rect x="217.33" y="4.9" class="st9" width="237.52" height="232.85"/>
	</g>
	<g>
		<defs>
			<path id="SVGID_43_" d="M221.24,107.28c15.01-49.6,104.27-112.1,134.24-47.99c15.87,33.96,66.88,15.69,55.25-9.27
				c-15.21-32.64-47.64-42.29-76.01-43.52C276.73,6.49,228.15,51.16,221.24,107.28"/>
		</defs>
		<clipPath id="SVGID_13_">
			<use xlink:href="#SVGID_43_"  style="overflow:visible;"/>
		</clipPath>
		
			<linearGradient id="SVGID_14_" gradientUnits="userSpaceOnUse" x1="-53.7176" y1="550.8123" x2="-52.6708" y2="550.8123" gradientTransform="matrix(170.1705 0 0 -170.1705 9364.2129 93783.2344)">
			<stop  offset="0" style="stop-color:#005BA3"/>
			<stop  offset="0.39" style="stop-color:#0874BB"/>
			<stop  offset="0.65" style="stop-color:#14A2DD"/>
			<stop  offset="0.83" style="stop-color:#6FCBF2"/>
			<stop  offset="1" style="stop-color:#C1E7F1"/>
		</linearGradient>
		<rect x="221.24" y="-4.82" class="st10" width="201.12" height="112.1"/>
	</g>
	<g>
		<defs>
			<path id="SVGID_46_" d="M386.35,223.11c-82,7.79-143.42-18-163.43-111.34C219.83,203,300.19,257.63,386.35,223.11"/>
		</defs>
		<clipPath id="SVGID_15_">
			<use xlink:href="#SVGID_46_"  style="overflow:visible;"/>
		</clipPath>
		
			<linearGradient id="SVGID_16_" gradientUnits="userSpaceOnUse" x1="-54.0316" y1="550.1661" x2="-52.9848" y2="550.1661" gradientTransform="matrix(-3802.3799 -739.1078 -739.1078 3802.3799 203455.9688 -2131308.25)">
			<stop  offset="0" style="stop-color:#0B63AF"/>
			<stop  offset="0.37" style="stop-color:#046CB5"/>
			<stop  offset="0.61" style="stop-color:#0874BB"/>
			<stop  offset="0.85" style="stop-color:#14A2DD"/>
			<stop  offset="1" style="stop-color:#C1E7F1"/>
		</linearGradient>
		<polygon class="st11" points="380.28,288.82 192.51,252.32 225.89,80.58 413.66,117.08 		"/>
	</g>
</g>
</svg>
